<svg width="22" height="22" viewBox="0 0 22 22" fill="none" xmlns="http://www.w3.org/2000/svg">
<path fill-rule="evenodd" clip-rule="evenodd" d="M10.5044 21.7336C4.20436 21.7336 0.325195 17.3003 0.325195 11.6711C0.325195 5.02109 5.60436 0.558594 11.6127 0.558594C17.3585 0.558594 21.646 4.08776 21.646 9.65859C21.646 14.7336 18.9627 16.7461 16.2794 16.7461C14.9669 16.7461 13.8877 16.1336 13.421 15.2586C12.5169 16.1336 11.146 16.6878 9.83353 16.6878C6.6252 16.6878 4.99186 14.4128 4.99186 11.6711C4.99186 8.14193 7.55853 5.28359 11.321 5.28359C12.4002 5.28359 13.2752 5.57526 13.946 6.07109L14.0627 5.57526H16.8335L15.4627 11.9919C15.2002 13.2753 15.4919 14.2961 16.746 14.2961C18.2919 14.2961 19.196 13.0128 19.196 9.60026C19.196 5.05026 15.6085 2.92109 11.5835 2.92109C7.0627 2.92109 2.89186 6.04193 2.89186 11.6711C2.89186 16.2794 5.8377 19.2836 10.5044 19.2836C12.2544 19.2836 14.0627 18.9044 15.6377 18.0878L16.6002 20.4503C14.7919 21.2669 12.4002 21.7336 10.5044 21.7336ZM10.3002 13.9461C11.0585 13.9461 11.8169 13.7419 12.4294 13.1294L13.3627 8.81276C12.8377 8.25859 12.0794 7.99609 11.3502 7.99609C9.4252 7.99609 8.0252 9.48359 8.0252 11.4378C8.0252 12.9544 8.75436 13.9461 10.3002 13.9461Z" fill="white"/>
</svg>
