<svg width="20" height="19" viewBox="0 0 20 19" fill="none" xmlns="http://www.w3.org/2000/svg">
<path fill-rule="evenodd" clip-rule="evenodd" d="M9.90039 12.5003L12.4718 9.92894C13.1819 9.21877 13.358 8.13384 12.9088 7.23553L12.7631 6.94414C12.314 6.04583 12.49 4.9609 13.2002 4.25073L16.3885 1.06246C16.6163 0.83465 16.9856 0.83465 17.2134 1.06246C17.2578 1.10679 17.2947 1.15798 17.3227 1.21406L18.6107 3.79C19.596 5.76063 19.2098 8.14066 17.6519 9.69858L10.6532 16.6972C8.95743 18.393 6.44908 18.9851 4.17393 18.2268L1.35703 17.2878C1.0514 17.1859 0.886223 16.8556 0.988101 16.5499C1.01674 16.464 1.06499 16.386 1.12902 16.3219L4.22217 13.2288C4.93234 12.5186 6.01728 12.3425 6.91559 12.7917L7.20697 12.9374C8.10528 13.3865 9.19021 13.2105 9.90039 12.5003Z" fill="white"/>
</svg>
