<svg width="54" height="54" viewBox="0 0 54 54" fill="none" xmlns="http://www.w3.org/2000/svg">
<path fill-rule="evenodd" clip-rule="evenodd" d="M15.5482 24.5052C15.142 24.099 15.2901 23.409 15.8272 23.2052L38.2957 14.6827C38.9338 14.4407 39.5587 15.0656 39.3167 15.7037L30.7941 38.1722C30.5904 38.7093 29.9004 38.8574 29.4941 38.4512L23.8276 32.7847L36.4567 17.5427L21.2147 30.1718L15.5482 24.5052Z" fill="#324EA3"/>
<path opacity="0.5" fill-rule="evenodd" clip-rule="evenodd" d="M11.326 29.2394C10.7077 29.8578 10.7077 30.8603 11.326 31.4786C11.9443 32.0969 12.9468 32.0969 13.5652 31.4786L14.6848 30.359C15.3031 29.7407 15.3031 28.7382 14.6848 28.1198C14.0664 27.5015 13.0639 27.5015 12.4456 28.1198L11.326 29.2394ZM13.5652 40.4353C12.9468 39.817 12.9468 38.8144 13.5652 38.1961L18.0435 33.7178C18.6618 33.0994 19.6644 33.0994 20.2827 33.7178C20.901 34.3361 20.901 35.3386 20.2827 35.9569L15.8043 40.4353C15.186 41.0536 14.1835 41.0536 13.5652 40.4353ZM22.5219 42.6745C21.9035 42.0561 21.9035 41.0536 22.5219 40.4353L23.6414 39.3157C24.2598 38.6974 25.2623 38.6974 25.8806 39.3157C26.4989 39.934 26.4989 40.9365 25.8806 41.5549L24.761 42.6745C24.1427 43.2928 23.1402 43.2928 22.5219 42.6745Z" fill="#324EA3"/>
</svg>
