<svg width="38" height="38" viewBox="0 0 38 38" fill="none" xmlns="http://www.w3.org/2000/svg">
<path opacity="0.3" d="M7.71908 32.8542C7.33974 32.8542 6.9604 32.7024 6.65692 32.399L3.6222 29.3642C3.01526 28.7573 3.01526 27.8469 3.6222 27.2399C4.22914 26.633 5.21543 26.633 5.74651 27.2399L7.71908 29.2125L12.7264 24.2052C13.3333 23.5983 14.2437 23.5983 14.8507 24.2052C15.4576 24.8122 15.4576 25.7226 14.8507 26.3295L8.78123 32.399C8.47776 32.7024 8.09842 32.8542 7.71908 32.8542Z" fill="#324EA3"/>
<path fill-rule="evenodd" clip-rule="evenodd" d="M6.33301 11.0827C6.33301 9.33378 7.75077 7.91602 9.49967 7.91602H31.6663C33.4152 7.91602 34.833 9.33378 34.833 11.0827V25.3327C34.833 27.0816 33.4152 28.4993 31.6663 28.4993H20.557C20.1497 22.3101 15.0004 17.416 8.70801 17.416C7.89465 17.416 7.10039 17.4978 6.33301 17.6536V11.0827ZM30.3117 10.8288C30.8891 10.5179 31.6093 10.7339 31.9202 11.3114C32.2312 11.8888 32.0151 12.609 31.4377 12.9199L21.146 18.4616C20.7945 18.6508 20.3715 18.6508 20.02 18.4616L9.72835 12.9199C9.1509 12.609 8.93485 11.8888 9.24578 11.3114C9.55671 10.7339 10.2769 10.5179 10.8543 10.8288L20.583 16.0673L30.3117 10.8288Z" fill="#324EA3"/>
</svg>
